<?xml version="1.0" encoding="UTF-8" ?>
<!DOCTYPE svg PUBLIC "-//W3C//DTD SVG 1.1//EN" "http://www.w3.org/Graphics/SVG/1.1/DTD/svg11.dtd">
<svg width="600pt" height="197pt" viewBox="0 0 600 197" version="1.1" xmlns="http://www.w3.org/2000/svg">
<path fill="#ffffff" stroke="#808080" stroke-width="5" d=" M 31.13 6.24 C 34.08 6.00 37.04 6.10 40.00 6.09 C 214.67 6.11 389.33 6.06 563.99 6.11 C 580.30 6.05 594.67 20.72 594.73 36.95 C 594.75 79.32 594.77 121.70 594.72 164.08 C 594.52 180.29 580.16 194.63 563.92 194.74 C 387.27 194.77 210.61 194.77 33.96 194.74 C 17.71 194.71 3.05 180.31 3.10 164.00 C 3.09 121.64 3.09 79.28 3.10 36.93 C 3.00 21.60 15.92 7.64 31.13 6.24 Z" />
<path fill="#808080" d=" M 107.04 30.97 C 127.49 28.97 148.57 37.47 162.15 52.87 C 164.67 54.99 165.26 58.50 167.86 60.55 C 166.57 61.81 164.77 62.02 163.13 62.53 C 164.32 63.01 165.52 63.50 166.71 63.98 C 166.21 64.45 165.71 64.93 165.21 65.40 C 164.73 65.23 163.75 64.88 163.27 64.70 C 163.49 68.73 164.68 72.62 167.36 75.71 C 167.57 73.24 167.60 70.77 167.61 68.30 C 168.36 68.29 169.86 68.29 170.61 68.28 C 169.66 66.05 168.09 64.01 168.04 61.49 C 168.82 62.12 169.49 62.86 170.06 63.69 C 177.64 76.43 180.44 91.84 178.25 106.46 C 177.65 107.41 176.90 108.24 176.20 109.10 C 171.34 107.06 169.60 101.78 168.46 97.07 C 167.97 93.64 168.45 90.18 168.15 86.74 C 167.52 84.83 166.63 83.01 165.90 81.13 C 166.50 79.96 167.12 78.80 167.74 77.65 C 167.55 77.57 167.19 77.42 167.01 77.35 C 166.50 78.89 165.99 80.56 164.16 80.94 C 162.35 79.81 161.51 77.77 160.29 76.12 C 160.60 74.92 161.03 73.77 161.61 72.67 C 161.49 72.25 161.25 71.40 161.13 70.97 C 159.82 70.80 158.51 70.63 157.21 70.45 C 157.18 68.79 157.17 67.13 157.21 65.47 C 156.08 63.91 154.86 62.42 153.51 61.05 C 153.22 59.36 152.94 57.67 152.57 56.00 L 153.07 55.94 C 152.29 55.83 150.74 55.61 149.97 55.51 L 150.74 56.41 C 150.03 57.01 148.60 58.19 147.89 58.78 C 145.58 58.08 143.70 56.65 142.39 54.63 C 140.41 51.56 134.95 51.62 134.28 47.68 C 135.99 47.05 137.74 46.52 139.48 45.97 C 138.86 43.95 137.07 45.28 135.78 45.61 C 133.50 41.89 129.42 40.03 126.01 37.56 C 125.09 38.24 124.17 38.92 123.25 39.60 C 121.46 39.07 119.64 38.69 117.77 38.66 C 116.07 39.48 114.28 40.09 112.50 40.69 C 112.45 41.04 112.37 41.73 112.32 42.07 C 111.58 39.79 109.07 39.17 107.49 37.61 C 106.42 37.88 105.36 38.17 104.30 38.49 C 102.89 38.77 101.48 39.08 100.08 39.42 C 99.34 42.71 94.20 40.90 94.25 44.46 C 92.12 44.96 89.64 45.38 89.48 48.14 C 87.08 50.24 85.19 53.36 81.86 53.99 C 82.32 52.99 82.81 52.00 83.31 51.01 C 81.52 50.54 79.86 49.47 79.39 47.59 C 81.24 45.13 85.60 44.14 84.37 40.26 C 85.72 39.65 87.06 39.03 88.39 38.38 C 88.22 37.77 87.88 36.55 87.72 35.94 C 93.65 32.81 100.44 31.73 107.04 30.97 Z" />
<path fill="#808080" d=" M 316.63 38.38 C 317.82 38.33 319.01 38.29 320.21 38.26 C 320.20 49.08 320.19 59.90 320.22 70.73 C 319.33 70.75 317.54 70.80 316.65 70.83 C 316.65 60.01 316.70 49.19 316.63 38.38 Z" />
<path fill="#808080" d=" M 358.71 38.43 C 359.90 38.35 361.10 38.27 362.30 38.19 C 362.26 42.69 362.43 47.20 362.09 51.70 C 365.45 47.71 372.30 47.22 375.65 51.47 C 379.36 56.33 379.10 63.76 375.24 68.47 C 371.78 72.20 365.25 72.17 361.93 68.26 C 362.04 70.51 360.63 71.10 358.70 70.94 C 358.79 60.11 358.77 49.27 358.71 38.43 Z" />
<path fill="#808080" d=" M 388.26 38.35 C 389.36 38.29 390.45 38.23 391.56 38.17 C 391.54 49.05 391.53 59.93 391.56 70.81 C 390.46 70.82 389.37 70.84 388.28 70.86 C 388.27 60.02 388.29 49.19 388.26 38.35 Z" />
<path fill="#808080" d=" M 226.81 40.33 C 228.04 40.30 229.26 40.27 230.49 40.24 C 234.06 50.38 237.20 60.67 240.91 70.76 C 239.61 70.78 238.33 70.78 237.04 70.77 C 236.13 67.46 234.96 64.24 233.99 60.95 C 230.49 61.12 226.85 60.46 223.44 61.31 C 222.12 64.39 221.29 67.65 220.31 70.85 C 219.12 70.82 217.93 70.80 216.75 70.78 C 220.02 60.60 223.54 50.51 226.81 40.33 Z" />
<path fill="#808080" d=" M 301.94 40.91 C 303.53 39.09 305.50 41.15 305.89 42.87 C 305.17 43.50 304.47 44.14 303.76 44.78 C 302.05 44.41 300.11 42.43 301.94 40.91 Z" />
<path fill="#ffffff" d=" M 224.17 58.35 C 225.81 53.54 227.11 48.63 228.74 43.83 C 230.11 48.71 231.53 53.59 233.34 58.34 C 230.28 58.31 227.22 58.32 224.17 58.35 Z" />
<path fill="#808080" d=" M 246.34 48.69 C 247.59 48.72 248.84 48.76 250.10 48.79 C 251.96 54.98 254.29 61.01 256.26 67.16 C 258.52 61.11 260.03 54.75 262.73 48.89 C 263.55 48.82 265.19 48.69 266.02 48.62 C 263.60 56.12 260.58 63.41 257.90 70.82 C 256.81 70.83 255.72 70.84 254.63 70.85 C 251.87 63.47 249.13 56.07 246.34 48.69 Z" />
<path fill="#808080" d=" M 301.63 48.84 C 302.68 48.73 303.74 48.61 304.80 48.50 C 305.06 50.65 305.19 52.83 305.15 55.00 C 305.14 60.23 305.12 65.46 305.20 70.69 C 304.01 70.75 302.81 70.80 301.62 70.85 C 301.63 63.51 301.62 56.18 301.63 48.84 Z" />
<path fill="#808080" d=" M 331.70 49.98 C 335.44 48.55 339.90 47.64 343.65 49.49 C 345.65 50.54 346.61 52.84 346.59 55.02 C 346.73 60.44 346.61 65.86 346.65 71.28 C 344.79 71.17 343.77 70.00 343.21 68.36 C 340.58 71.00 336.19 72.37 332.89 70.12 C 329.34 68.05 329.23 61.83 333.16 60.11 C 336.34 58.72 339.95 59.33 343.33 59.22 C 343.30 57.44 343.28 55.65 343.26 53.87 C 342.93 53.34 342.27 52.28 341.94 51.74 C 338.51 51.00 335.10 51.79 331.76 52.48 C 331.74 51.85 331.72 50.61 331.70 49.98 Z" />
<path fill="#808080" d=" M 453.74 48.77 C 457.60 47.83 462.11 49.07 464.43 52.43 C 467.48 57.04 467.38 63.65 463.95 68.03 C 459.81 72.63 451.36 72.23 448.03 66.89 C 444.27 60.85 446.15 50.72 453.74 48.77 Z" />
<path fill="#ffffff" d=" M 145.31 48.91 C 147.78 50.17 150.41 51.33 151.52 54.11 C 150.92 54.58 150.32 55.05 149.72 55.51 C 148.33 54.25 146.96 52.98 145.52 51.78 C 145.47 51.06 145.36 49.63 145.31 48.91 Z" />
<path fill="#808080" d=" M 274.77 49.92 C 278.48 48.49 282.92 47.68 286.63 49.56 C 288.86 50.84 289.55 53.59 289.54 56.00 C 289.55 60.94 289.59 65.88 289.54 70.82 C 288.88 70.84 287.54 70.89 286.88 70.91 C 286.76 70.24 286.52 68.90 286.40 68.24 C 282.83 72.07 276.07 72.39 273.25 67.54 C 273.40 65.27 272.68 62.40 274.90 60.89 C 278.06 58.33 282.52 59.46 286.29 59.21 C 286.32 56.68 286.12 54.15 285.17 51.79 C 281.56 51.04 277.93 51.62 274.45 52.62 C 274.53 51.95 274.69 50.59 274.77 49.92 Z" />
<path fill="#808080" d=" M 404.58 51.44 C 407.39 48.65 412.06 47.48 415.64 49.46 C 419.53 51.43 420.77 56.47 419.76 60.46 C 414.70 60.41 409.63 60.38 404.58 60.48 C 405.49 62.97 405.77 66.24 408.41 67.62 C 411.72 69.53 415.65 68.17 419.11 67.46 C 418.99 68.12 418.75 69.44 418.63 70.10 C 414.05 71.63 408.35 72.06 404.56 68.51 C 400.54 63.79 400.76 56.20 404.58 51.44 Z" />
<path fill="#808080" d=" M 476.71 49.36 C 477.46 49.15 478.97 48.72 479.72 48.51 C 479.74 49.40 479.79 51.19 479.81 52.09 C 482.47 49.47 486.46 47.40 490.20 49.02 C 493.05 49.99 494.54 53.09 494.64 55.95 C 494.84 60.90 494.64 65.85 494.74 70.81 C 493.90 70.83 492.22 70.86 491.38 70.87 C 491.30 65.96 491.47 61.04 491.32 56.12 C 491.26 54.26 490.18 52.40 488.45 51.64 C 485.48 50.71 482.24 52.18 480.54 54.67 C 480.03 60.03 480.48 65.45 480.34 70.83 C 479.14 70.79 477.95 70.76 476.77 70.72 C 476.77 63.60 476.86 56.48 476.71 49.36 Z" />
<path fill="#ffffff" d=" M 366.37 51.51 C 368.64 51.02 371.60 51.07 373.02 53.25 C 375.28 56.65 375.20 61.22 373.89 64.95 C 372.06 69.27 365.33 70.00 362.92 65.85 C 361.87 63.00 362.36 59.87 362.28 56.89 C 361.91 54.33 364.17 52.29 366.37 51.51 Z" />
<path fill="#ffffff" d=" M 408.49 51.76 C 410.59 50.87 412.90 51.48 415.06 51.80 C 415.93 53.65 416.58 55.59 417.09 57.57 C 413.07 57.67 409.04 57.65 405.01 57.61 C 405.77 55.48 406.42 53.01 408.49 51.76 Z" />
<path fill="#ffffff" d=" M 453.53 51.70 C 456.20 50.88 459.75 50.96 461.45 53.55 C 464.05 57.50 463.89 63.20 460.91 66.93 C 458.00 69.55 452.49 69.16 450.77 65.34 C 448.84 60.92 448.91 54.41 453.53 51.70 Z" />
<path fill="#808080" d=" M 83.64 55.34 C 85.77 55.20 87.89 54.67 90.03 54.83 C 91.34 57.37 90.77 60.78 93.15 62.74 C 95.64 64.65 97.88 67.13 100.98 68.04 C 99.88 66.18 98.62 64.44 97.31 62.73 C 97.60 62.45 98.18 61.87 98.48 61.59 C 98.92 61.53 99.81 61.41 100.25 61.34 C 102.67 63.32 104.61 65.67 103.97 69.03 C 104.29 69.11 104.94 69.28 105.26 69.36 C 105.82 67.99 105.71 66.11 107.45 65.55 C 107.58 66.78 107.70 68.01 107.81 69.25 C 109.56 69.52 111.39 69.63 112.84 70.80 C 109.38 73.64 105.43 76.45 104.55 81.16 C 104.86 81.61 105.48 82.53 105.80 82.99 C 107.29 83.41 108.78 83.90 110.22 84.48 C 110.38 86.56 111.44 88.31 112.92 89.72 C 113.22 87.75 113.44 85.76 113.91 83.81 C 113.20 81.43 113.27 78.93 113.26 76.47 C 113.83 74.58 115.29 73.09 115.57 71.07 C 112.72 69.79 109.36 68.90 108.01 65.71 C 114.22 63.69 117.91 70.39 122.08 73.67 C 121.40 74.83 120.74 75.98 120.09 77.15 C 118.44 76.86 116.84 76.27 115.17 76.14 C 115.13 76.33 115.05 76.70 115.01 76.88 C 116.88 77.78 118.74 78.76 120.30 80.16 C 120.98 80.23 122.33 80.36 123.01 80.43 C 124.93 81.92 126.89 83.45 128.27 85.49 C 129.99 88.31 133.04 89.87 135.16 92.36 C 133.95 92.47 132.74 92.51 131.53 92.47 C 130.42 91.40 129.72 89.99 128.91 88.70 C 125.97 89.91 122.51 90.53 120.74 93.51 C 122.32 92.93 123.77 92.08 125.23 91.25 C 125.42 91.88 125.81 93.12 126.01 93.74 C 126.68 93.61 128.02 93.35 128.69 93.22 C 128.71 93.69 128.75 94.64 128.77 95.11 C 126.69 96.25 124.53 97.22 122.31 98.08 C 119.85 101.05 117.09 104.19 117.14 108.30 C 115.12 110.36 112.18 111.87 111.57 114.94 C 112.05 116.73 112.70 118.47 113.12 120.28 C 109.91 119.13 108.70 115.26 105.12 114.58 C 103.29 116.14 101.11 115.73 99.15 114.71 C 98.08 115.03 97.01 115.33 95.94 115.61 C 94.05 117.87 93.02 121.04 94.49 123.81 C 95.74 124.74 97.13 125.48 98.49 126.24 C 100.11 125.23 101.58 122.65 103.72 124.00 C 104.06 125.86 103.46 127.69 103.07 129.50 C 105.28 129.53 107.42 130.02 109.44 130.90 C 109.38 132.62 109.30 134.35 109.23 136.07 C 109.93 136.48 110.64 136.88 111.35 137.29 C 112.78 137.37 114.21 137.48 115.63 137.61 C 116.98 136.39 118.33 134.92 120.18 134.52 C 124.32 135.64 128.53 134.23 132.71 133.91 C 136.27 135.58 140.14 136.58 144.11 136.27 C 146.10 136.02 146.83 138.44 148.12 139.49 C 151.88 139.28 155.45 138.00 159.03 136.91 C 159.68 137.55 160.34 138.19 161.00 138.84 C 158.98 141.34 157.69 144.31 156.05 147.04 C 146.52 155.70 134.16 160.82 121.52 162.81 C 121.58 161.95 121.70 160.23 121.75 159.37 C 117.95 156.20 114.69 152.38 110.29 149.95 C 110.56 148.39 110.91 146.85 111.32 145.33 C 112.33 144.90 113.35 144.49 114.36 144.07 C 114.45 142.25 114.54 140.42 114.62 138.60 C 113.39 138.82 112.17 139.05 110.95 139.29 C 109.38 138.67 107.78 138.12 106.29 137.33 C 104.88 135.56 104.10 133.25 102.17 131.93 C 98.70 129.58 94.32 129.18 90.77 126.99 C 88.32 125.10 85.78 123.30 83.43 121.28 C 83.66 118.76 83.47 116.18 81.80 114.15 C 80.92 111.76 80.77 108.97 79.00 107.00 C 79.21 110.22 80.15 113.32 81.32 116.30 C 80.13 115.03 78.50 113.98 78.11 112.17 C 77.11 108.48 75.46 104.92 75.11 101.09 C 75.45 97.25 75.00 93.09 77.05 89.63 C 77.98 87.71 79.24 85.97 80.45 84.22 C 77.73 77.78 84.91 71.20 81.08 65.04 C 78.41 63.61 74.11 63.66 73.22 60.22 C 74.36 60.68 75.50 61.14 76.63 61.62 C 77.27 60.25 77.95 58.91 78.66 57.58 C 80.61 57.38 83.15 57.90 83.64 55.34 Z" />
<path fill="#808080" d=" M 115.61 56.82 C 117.42 53.14 122.28 53.95 125.29 55.60 C 128.58 56.69 131.52 58.70 133.62 61.47 C 134.24 62.74 133.17 64.06 132.91 65.30 C 132.25 67.76 132.16 70.34 131.72 72.85 C 133.02 73.58 134.31 74.31 135.61 75.05 C 133.64 75.52 131.67 76.53 129.63 76.38 C 126.83 74.54 124.01 71.85 124.15 68.22 C 121.44 64.59 116.15 63.72 114.45 59.28 C 113.97 60.76 113.56 62.26 113.10 63.75 C 111.91 62.86 110.75 61.94 109.61 61.00 C 110.06 59.55 110.44 58.08 110.80 56.61 C 111.26 56.33 112.18 55.76 112.64 55.48 C 113.05 55.47 113.88 55.44 114.29 55.42 C 114.62 55.77 115.28 56.47 115.61 56.82 Z" />
<path fill="#808080" d=" M 135.45 63.92 C 136.59 62.97 137.74 62.04 138.90 61.11 C 139.45 61.49 140.55 62.24 141.10 62.62 C 140.66 64.59 139.71 66.36 138.29 67.80 C 137.88 67.54 137.07 67.03 136.66 66.77 C 136.26 65.82 135.85 64.87 135.45 63.92 Z" />
<path fill="#808080" d=" M 147.26 60.14 C 149.95 61.71 152.78 63.00 155.59 64.31 C 155.81 65.56 155.90 66.82 155.88 68.09 C 154.18 67.24 152.50 66.38 150.82 65.51 C 151.94 66.86 153.03 68.23 154.06 69.65 C 149.18 69.19 148.98 63.58 147.26 60.14 Z" />
<path fill="#ffffff" d=" M 335.14 61.97 C 337.82 61.44 340.58 61.70 343.30 61.63 C 343.30 62.93 343.31 64.22 343.35 65.52 C 341.52 67.46 338.92 69.10 336.15 68.45 C 333.25 67.95 332.55 63.39 335.14 61.97 Z" />
<path fill="#ffffff" d=" M 278.17 68.21 C 276.03 66.78 275.80 63.45 277.98 61.96 C 280.78 61.47 283.64 61.68 286.47 61.66 C 286.21 63.50 285.81 65.30 285.21 67.06 C 282.98 67.85 280.56 69.25 278.17 68.21 Z" />
<path fill="#808080" d=" M 251.73 89.49 C 255.09 89.39 258.46 89.26 261.83 89.23 C 261.80 98.52 261.87 107.82 261.79 117.11 C 267.07 110.52 277.36 107.86 284.64 112.72 C 289.50 116.11 291.10 122.34 291.21 127.97 C 291.23 137.52 291.20 147.07 291.21 156.62 C 287.88 156.65 284.55 156.65 281.23 156.64 C 281.21 147.42 281.31 138.20 281.19 128.99 C 280.95 125.21 279.97 120.31 275.81 119.05 C 270.47 117.15 265.31 120.59 261.82 124.36 C 261.83 135.12 261.80 145.88 261.84 156.64 C 258.46 156.65 255.09 156.66 251.72 156.58 C 251.74 134.22 251.72 111.85 251.73 89.49 Z" />
<path fill="#808080" d=" M 485.58 89.46 C 488.96 89.40 492.33 89.26 495.71 89.22 C 495.68 98.49 495.78 107.76 495.66 117.03 C 498.96 111.98 505.27 109.61 511.15 110.31 C 519.06 110.74 525.25 117.48 526.95 124.90 C 529.32 135.59 527.61 149.11 517.42 155.26 C 510.18 159.39 499.60 158.35 494.65 151.16 C 494.02 152.98 493.43 154.81 492.79 156.62 C 490.30 156.65 487.82 156.65 485.34 156.64 C 485.81 134.25 485.49 111.85 485.58 89.46 Z" />
<path fill="#808080" d=" M 394.60 93.56 C 398.23 93.59 401.87 93.59 405.50 93.55 C 409.75 110.43 412.95 127.56 416.93 144.50 C 417.04 139.95 418.11 135.53 418.94 131.08 C 421.40 118.56 424.02 106.07 426.61 93.58 C 430.10 93.58 433.59 93.57 437.08 93.58 C 432.50 114.66 427.10 135.57 422.36 156.61 C 418.48 156.66 414.61 156.66 410.75 156.60 C 407.40 140.17 403.02 123.96 399.95 107.48 C 396.31 123.90 392.38 140.26 388.56 156.64 C 384.77 156.59 380.98 156.81 377.21 156.53 C 371.97 135.66 367.36 114.55 362.37 93.58 C 366.01 93.58 369.65 93.57 373.29 93.59 C 376.80 110.60 380.42 127.60 383.49 144.70 C 386.43 127.50 390.75 110.57 394.60 93.56 Z" />
<path fill="#808080" d=" M 224.56 101.19 C 227.56 100.43 230.58 99.76 233.60 99.11 C 233.66 103.13 233.65 107.14 233.61 111.16 C 237.31 111.14 241.01 111.14 244.72 111.14 C 244.63 113.67 244.53 116.21 244.44 118.74 C 240.83 118.77 237.23 118.77 233.62 118.75 C 233.69 126.47 233.56 134.20 233.67 141.92 C 233.67 144.49 234.51 147.63 237.12 148.70 C 239.48 150.01 242.13 148.77 244.58 148.43 C 244.65 151.11 244.69 153.78 244.71 156.46 C 240.25 157.53 235.46 158.14 230.96 157.05 C 225.90 155.44 223.87 149.88 223.71 145.02 C 223.56 136.27 223.65 127.50 223.68 118.75 C 221.57 118.76 219.47 118.76 217.37 118.74 C 217.49 116.32 217.65 113.91 217.86 111.50 C 219.95 111.40 222.04 111.30 224.14 111.22 C 224.30 107.87 224.48 104.53 224.56 101.19 Z" />
<path fill="#808080" d=" M 303.81 116.83 C 310.08 109.55 321.93 108.10 329.98 113.17 C 337.08 117.99 338.75 127.60 337.41 135.56 C 336.24 136.70 334.47 136.09 333.03 136.27 C 324.55 136.09 316.05 136.53 307.58 136.01 C 308.30 140.34 309.24 145.49 313.51 147.74 C 317.87 150.51 323.27 149.47 328.13 149.24 C 330.26 148.61 332.42 148.02 334.53 147.26 C 334.95 149.77 335.42 152.27 335.74 154.80 C 332.91 155.90 329.96 156.62 327.00 157.28 C 320.41 157.74 313.26 158.25 307.44 154.51 C 299.60 150.10 297.32 140.25 297.80 131.89 C 298.52 126.51 299.91 120.85 303.81 116.83 Z" />
<path fill="#808080" d=" M 442.02 119.96 C 447.85 109.35 464.12 106.83 472.93 115.05 C 478.02 120.65 479.75 129.08 477.60 136.29 C 467.83 136.15 458.06 136.35 448.29 136.17 C 448.46 141.57 451.24 147.48 456.84 148.97 C 462.96 150.44 469.42 149.33 475.29 147.28 C 475.53 149.75 475.81 152.22 476.27 154.66 C 470.25 157.49 463.47 157.84 456.94 157.47 C 449.25 156.90 442.11 151.53 439.87 144.08 C 437.48 136.22 437.92 127.18 442.02 119.96 Z" />
<path fill="#ffffff" d=" M 314.43 118.77 C 317.97 116.84 322.75 117.50 325.61 120.35 C 327.89 122.65 328.06 126.10 328.43 129.13 C 321.65 129.14 314.86 129.13 308.07 129.14 C 308.63 125.05 310.37 120.50 314.43 118.77 Z" />
<path fill="#ffffff" d=" M 453.56 119.61 C 457.32 116.79 463.27 117.02 466.48 120.58 C 468.55 122.92 468.64 126.18 468.85 129.14 C 462.05 129.13 455.25 129.14 448.45 129.13 C 449.32 125.61 450.43 121.79 453.56 119.61 Z" />
<path fill="#ffffff" d=" M 502.41 119.01 C 505.78 117.91 509.93 118.02 512.71 120.48 C 516.59 123.69 517.58 129.09 517.59 133.87 C 517.49 138.31 516.77 143.22 513.53 146.54 C 508.64 151.83 497.96 149.96 496.15 142.62 C 495.20 137.82 495.92 132.83 495.69 127.96 C 495.26 123.79 498.92 120.55 502.41 119.01 Z" />
<path fill="#808080" d=" M 107.75 123.36 C 113.02 122.39 117.60 126.49 122.78 125.88 C 123.21 126.09 124.09 126.50 124.53 126.70 C 124.57 127.16 124.66 128.07 124.70 128.53 C 122.89 128.35 121.10 128.00 119.34 127.56 L 120.91 126.55 C 119.42 126.74 117.93 126.98 116.46 127.26 C 113.92 125.15 110.55 124.90 107.75 123.36 Z" />
</svg>
